mtllib dryingrack.mtl
g g0
v 0.6002 1.0002 0.000200152
v 0.6002 1.0002 1.0002
v 0.6001 0.9001 1.0001
v 0.6001 0.9001 0.000100136
v 1.0001 1.0001 0.000100136
v 1.0001 1.0001 1.0001
v 0.7001 1.0001 1.0001
v 0.7001 1.0001 0.000100136
v 0.5002 0.000200033 1.0002
v 0.5002 0.000200152 0.000199974
v 0.5001 0.1001 0.000100076
v 0.5001 0.1001 1.0001
v 0.6001 0.000100017 1.0001
v 1.0001 0.000100017 1.0001
v 1.0001 0.000100136 0.000100076
v 0.6001 0.000100136 0.000100076
v 0.6 0.1 -5.96046e-008
v 0.6 0.1 1
v 0.7 0.9 1
v 0.7 0.9 1.19209e-007
vn 0.000999974 1 1.19209e-007
vn 0.000499987 1 1.19209e-007
vn 0.000499987 1 1.19209e-007
vn 0.000499987 1 1.19209e-007
vn 0.000999974 1 1.19209e-007
vn 0.000999974 1 1.19209e-007
vn -0.00100057 -1 -8.94069e-008
vn -0.00100057 -1 -8.94069e-008
vn -0.00100057 -1 -8.94069e-008
vn -0.00100057 -1 -8.94069e-008
vn -0.00100057 -1 -8.94069e-008
vn -0.00100057 -1 -8.94069e-008
vn 0.000499987 1 1.19209e-007
vn 0 1 1.19209e-007
vn 0.000499987 1 1.19209e-007
vn 0 1 1.19209e-007
vn 0.000499987 1 1.19209e-007
vn 0 1 1.19209e-007
vn -0.000500583 -1 -1.19209e-007
vn -0.00100117 -1 -1.19209e-007
vn -0.000500583 -1 -1.19209e-007
vn -0.00100117 -1 -1.19209e-007
vn -0.000500583 -1 -1.19209e-007
vn -0.00100117 -1 -1.19209e-007
vn 0.00100117 1 1.19209e-007
vn 0.00100117 1 1.19209e-007
vn 0.00100117 1 1.19209e-007
vn 0.00100117 1 1.19209e-007
vn 0.00100117 1 1.19209e-007
vn 0.00100117 1 1.19209e-007
vn 0 -1 -1.19209e-007
vn -0.000500583 -1 -1.19209e-007
vn 0 -1 -1.19209e-007
vn -0.000500583 -1 -1.19209e-007
vn 0 -1 -1.19209e-007
vn -0.000500583 -1 -1.19209e-007
vt 0.590727 0.9998
vt 0.692969 0.000100017
vt 0.692969 0.9999
vt 0.692969 0.000100017
vt 0.590727 0.9998
vt 0.590727 0
vt 0.692866 0.000199974
vt 0.590625 0.9999
vt 0.692866 1
vt 0.590625 0.9999
vt 0.692866 0.000199974
vt 0.590625 0.000100017
vt 0.692969 0.000100017
vt 1 0.9999
vt 0.692969 0.9999
vt 1 0.9999
vt 0.692969 0.000100017
vt 1 0.000100017
vt 0.590625 0.000100017
vt 0.488384 0.9998
vt 0.590625 0.9999
vt 0.488384 0.9998
vt 0.590625 0.000100017
vt 0.488384 0
vt 0.488281 0.9999
vt 0.590523 0.000199974
vt 0.590523 1
vt 0.590523 0.000199974
vt 0.488281 0.9999
vt 0.488281 0.000100017
vt 1 0.000100017
vt 0.590625 0.9999
vt 1 0.9999
vt 0.590625 0.9999
vt 1 0.000100017
vt 0.590625 0.000100017
usemtl acmat_0
f 1/1/1 7/2/2 8/3/3
f 7/4/4 1/5/5 2/6/6
f 19/7/7 4/8/8 20/9/9
f 4/10/10 19/11/11 3/12/12
f 7/13/13 5/14/14 8/15/15
f 5/16/16 7/17/17 6/18/18
f 13/19/19 10/20/20 16/21/21
f 10/22/22 13/23/23 9/24/24
f 11/25/25 18/26/26 17/27/27
f 18/28/28 11/29/29 12/30/30
f 14/31/31 16/32/32 15/33/33
f 16/34/34 14/35/35 13/36/36
v 0.7 0.9 1.19209e-007
v 1 0.9 1.19209e-007
v 1 0.9 1
v 0.7 0.9 1
v 0.6 0.1 1
v 1 0.1 1
v 1 0.1 -5.96046e-008
v 0.6 0.1 -5.96046e-008
v 0.6001 0.000100136 0.000100076
v 1.0001 0.000100136 0.000100076
v 1.0001 0.000100017 1.0001
v 0.6001 0.000100017 1.0001
v 0.5001 0.1001 1.0001
v 0.5001 0.1001 0.000100076
v 0.5002 0.000200152 0.000199974
v 0.5002 0.000200033 1.0002
v 0.7001 1.0001 0.000100136
v 0.7001 1.0001 1.0001
v 1.0001 1.0001 1.0001
v 1.0001 1.0001 0.000100136
v 0.6001 0.9001 0.000100136
v 0.6001 0.9001 1.0001
v 0.6002 1.0002 1.0002
v 0.6002 1.0002 0.000200152
vn 0 0.000500248 1
vn 0.000332991 -0.000666865 1
vn 0.000333858 0.000667455 1
vn 0.000332991 -0.000666865 1
vn 0 0.000500248 1
vn 0 -0.000500216 1
vn -0.000333388 0.000666518 -1
vn 0 -0.000501068 -1
vn -0.000333659 -0.000668102 -1
vn 0 -0.000501068 -1
vn -0.000333388 0.000666518 -1
vn 0 0.000499694 -1
vn 0 -0.000501068 -1
vn -0.000500488 -0.00100226 -0.999999
vn -0.000333659 -0.000668102 -1
vn -0.000500488 -0.00100226 -0.999999
vn 0 -0.000501068 -1
vn 0 -0.00100236 -1
vn 0.000500786 0.00100122 0.999999
vn 0 0.000500248 1
vn 0.000333858 0.000667455 1
vn 0 0.000500248 1
vn 0.000500786 0.00100122 0.999999
vn 0 0.00100057 1
vn -0.000333659 -0.000668102 -1
vn -0.00100098 -0.00100217 -0.999999
vn -0.00100098 -0.00100217 -0.999999
vn -0.00100098 -0.00100217 -0.999999
vn -0.000333659 -0.000668102 -1
vn -0.000500488 -0.00100226 -0.999999
vn 0.00100157 0.00100187 0.999999
vn 0.000333858 0.000667455 1
vn 0.00100157 0.00100187 0.999999
vn 0.000333858 0.000667455 1
vn 0.00100157 0.00100187 0.999999
vn 0.000500786 0.00100122 0.999999
vn 0 -0.000500216 1
vn 0.000499487 -0.00100026 0.999999
vn 0.000332991 -0.000666865 1
vn 0.000499487 -0.00100026 0.999999
vn 0 -0.000500216 1
vn 0 -0.00100036 1
vn -0.000500082 0.000999665 -0.999999
vn 0 0.000499694 -1
vn -0.000333388 0.000666518 -1
vn 0 0.000499694 -1
vn -0.000500082 0.000999665 -0.999999
vn 0 0.000999165 -1
vn 0.000332991 -0.000666865 1
vn 0.000998973 -0.00100016 0.999999
vn 0.000998973 -0.00100016 0.999999
vn 0.000998973 -0.00100016 0.999999
vn 0.000332991 -0.000666865 1
vn 0.000499487 -0.00100026 0.999999
vn -0.00100016 0.00100016 -0.999999
vn -0.000333388 0.000666518 -1
vn -0.00100016 0.00100016 -0.999999
vn -0.000333388 0.000666518 -1
vn -0.00100016 0.00100016 -0.999999
vn -0.000500082 0.000999665 -0.999999
vt 0.999897 0.09989
vt 0.690522 0.89981
vt 0.587397 0.09989
vt 0.690522 0.89981
vt 0.999897 0.09989
vt 0.999897 0.89981
vt 0.690522 0.89981
vt 0.999897 0.09989
vt 0.587397 0.09989
vt 0.999897 0.09989
vt 0.690522 0.89981
vt 0.999897 0.89981
vt 0.999897 0.09989
vt 0.5875 0
vt 0.587397 0.09989
vt 0.5875 0
vt 0.999897 0.09989
vt 1 0
vt 0.5875 0
vt 0.999897 0.09989
vt 0.587397 0.09989
vt 0.999897 0.09989
vt 0.5875 0
vt 1 0
vt 0.587397 0.09989
vt 0.484478 9.99868e-005
vt 0.484375 0.09999
vt 0.484478 9.99868e-005
vt 0.587397 0.09989
vt 0.5875 0
vt 0.484478 9.99868e-005
vt 0.587397 0.09989
vt 0.484375 0.09999
vt 0.587397 0.09989
vt 0.484478 9.99868e-005
vt 0.5875 0
vt 0.999897 0.89981
vt 0.690625 0.9999
vt 0.690522 0.89981
vt 0.690625 0.9999
vt 0.999897 0.89981
vt 1 0.9999
vt 0.690625 0.9999
vt 0.999897 0.89981
vt 0.690522 0.89981
vt 0.999897 0.89981
vt 0.690625 0.9999
vt 1 0.9999
vt 0.690522 0.89981
vt 0.587603 1
vt 0.5875 0.89991
vt 0.587603 1
vt 0.690522 0.89981
vt 0.690625 0.9999
vt 0.587603 1
vt 0.690522 0.89981
vt 0.5875 0.89991
vt 0.690522 0.89981
vt 0.587603 1
vt 0.690625 0.9999
f 26/37/37 24/38/38 25/39/39
f 24/40/40 26/41/41 23/42/42
f 21/43/43 27/44/44 28/45/45
f 27/46/46 21/47/47 22/48/48
f 27/49/49 29/50/50 28/51/51
f 29/52/52 27/53/53 30/54/54
f 32/55/55 26/56/56 25/57/57
f 26/58/58 32/59/59 31/60/60
f 28/61/61 35/62/62 34/63/63
f 35/64/64 28/65/65 29/66/66
f 36/67/67 25/68/68 33/69/69
f 25/70/70 36/71/71 32/72/72
f 23/73/73 38/74/74 24/75/75
f 38/76/76 23/77/77 39/78/78
f 37/79/79 22/80/80 21/81/81
f 22/82/82 37/83/83 40/84/84
f 24/85/85 43/86/86 42/87/87
f 43/88/88 24/89/89 38/90/90
f 44/91/91 21/92/92 41/93/93
f 21/94/94 44/95/95 37/96/96
v 0.6002 1.0002 0.000200152
v 0.6002 1.0002 1.0002
v 0.6001 0.9001 1.0001
v 0.6001 0.9001 0.000100136
v 1.0001 1.0001 0.000100136
v 1.0001 1.0001 1.0001
v 0.5002 0.000200033 1.0002
v 0.5002 0.000200152 0.000199974
v 0.5001 0.1001 0.000100076
v 0.5001 0.1001 1.0001
v 1.0001 0.000100017 1.0001
v 1.0001 0.000100136 0.000100076
v 0.6 0.1 -5.96046e-008
v 1 0.1 -5.96046e-008
v 1 0.1 1
v 0.6 0.1 1
v 0.7 0.9 1
v 1 0.9 1
v 1 0.9 1.19209e-007
v 0.7 0.9 1.19209e-007
vn -1 0.000999167 1.1911e-010
vn -1 0.000999167 1.1911e-010
vn -1 0.000999167 1.1911e-010
vn -1 0.000999167 1.1911e-010
vn -1 0.000999167 1.1911e-010
vn -1 0.000999167 1.1911e-010
vn 1 -0.000499583 -4.46662e-011
vn 1 -0.000999165 -8.93323e-011
vn 1 -0.000499583 -4.46662e-011
vn 1 -0.000999165 -8.93323e-011
vn 1 -0.000499583 -4.46662e-011
vn 1 -0.000999165 -8.93323e-011
vn -1 -0.00100117 -1.19348e-010
vn -1 -0.00100117 -1.19348e-010
vn -1 -0.00100117 -1.19348e-010
vn -1 -0.00100117 -1.19348e-010
vn -1 -0.00100117 -1.19348e-010
vn -1 -0.00100117 -1.19348e-010
vn 1 0.00100117 1.19348e-010
vn 1 0.000500583 5.96742e-011
vn 1 0.00100117 1.19348e-010
vn 1 0.000500583 5.96742e-011
vn 1 0.00100117 1.19348e-010
vn 1 0.000500583 5.96742e-011
vn 1 0.000500583 5.96742e-011
vn 1 -0.000499583 -4.46662e-011
vn 1 0.000500583 5.96742e-011
vn 1 -0.000499583 -4.46662e-011
vn 1 0.000500583 5.96742e-011
vn 1 -0.000499583 -4.46662e-011
vn -0.992278 0.124035 1.47861e-008
vn -0.992278 0.124035 1.47861e-008
vn -0.992278 0.124035 1.47861e-008
vn -0.992278 0.124035 1.47861e-008
vn -0.992278 0.124035 1.47861e-008
vn -0.992278 0.124035 1.47861e-008
vt 1 1
vt 9.99966e-005 0.89991
vt 0.9999 0.89991
vt 9.99966e-005 0.89991
vt 1 1
vt 0.000199993 1
vt 0 0.89981
vt 0.9999 0.9999
vt 0.9998 0.89981
vt 0.9999 0.9999
vt 0 0.89981
vt 9.99966e-005 0.9999
vt 0.9999 0.09999
vt 0.000199993 9.999e-005
vt 1 9.999e-005
vt 0.000199993 9.999e-005
vt 0.9999 0.09999
vt 9.99966e-005 0.09999
vt 9.99966e-005 0
vt 0.9998 0.09989
vt 0.9999 0
vt 0.9998 0.09989
vt 9.99966e-005 0
vt 0 0.09989
vt 0 0.09989
vt 0.9998 0.89981
vt 0.9998 0.09989
vt 0.9998 0.89981
vt 0 0.09989
vt 0 0.89981
vt 0.9998 0.89981
vt 0 0.09989
vt 0.9998 0.09989
vt 0 0.09989
vt 0.9998 0.89981
vt 0 0.89981
f 46/97/97 48/98/98 47/99/99
f 48/100/100 46/101/101 45/102/102
f 63/103/103 50/104/104 62/105/105
f 50/106/106 63/107/107 49/108/108
f 54/109/109 52/110/110 51/111/111
f 52/112/112 54/113/113 53/114/114
f 56/115/115 59/116/116 55/117/117
f 59/118/118 56/119/119 58/120/120
f 58/121/121 62/122/122 59/123/123
f 62/124/124 58/125/125 63/126/126
f 61/127/127 57/128/128 60/129/129
f 57/130/130 61/131/131 64/132/132
