mtllib rustedanalyser.mtl
g g0
v 0.55 0.375 0.2
v 0.535355 0.375 0.164645
v 0.5 0.375 0.15
v 0.464645 0.375 0.164645
v 0.45 0.375 0.2
v 0.464645 0.375 0.235355
v 0.5 0.375 0.25
v 0.535355 0.375 0.235355
v 0.55 0.6 0.2
v 0.535355 0.6 0.164645
v 0.5 0.6 0.15
v 0.464645 0.6 0.164645
v 0.45 0.6 0.2
v 0.464645 0.6 0.235355
v 0.5 0.6 0.25
v 0.535355 0.6 0.235355
vn 0.707105 0 0.707109
vn 0 0 1
vn 0 0 1
vn 0 0 1
vn 0.707105 0 0.707109
vn 0.707105 0 0.707109
vn 0 0 1
vn -0.707105 0 0.707109
vn -0.707105 0 0.707109
vn -0.707105 0 0.707109
vn 0 0 1
vn 0 0 1
vn -0.707105 0 0.707109
vn -0.923878 0 0.382688
vn -0.707105 0 0.707109
vn -0.923878 0 0.382688
vn -0.707105 0 0.707109
vn -0.923878 0 0.382688
vn -0.923877 0 -0.382689
vn -0.707105 0 -0.707109
vn -0.923877 0 -0.382689
vn -0.707105 0 -0.707109
vn -0.923877 0 -0.382689
vn -0.707105 0 -0.707109
vn 0 0 -1
vn -0.707105 0 -0.707109
vn -0.707105 0 -0.707109
vn -0.707105 0 -0.707109
vn 0 0 -1
vn 0 0 -1
vn 0.707105 0 -0.707109
vn 0 0 -1
vn 0 0 -1
vn 0 0 -1
vn 0.707105 0 -0.707109
vn 0.707105 0 -0.707109
vn 0.707105 0 -0.707109
vn 0.923877 0 -0.382689
vn 0.707105 0 -0.707109
vn 0.923877 0 -0.382689
vn 0.707105 0 -0.707109
vn 0.923877 0 -0.382689
vn 0.923878 0 0.382688
vn 0.707105 0 0.707109
vn 0.923878 0 0.382688
vn 0.707105 0 0.707109
vn 0.923878 0 0.382688
vn 0.707105 0 0.707109
vt 0.265669 0.576411
vt 0.255358 0.829446
vt 0.255358 0.576411
vt 0.255358 0.829446
vt 0.265669 0.576411
vt 0.265669 0.829446
vt 0.255358 0.576411
vt 0.245048 0.829446
vt 0.245048 0.576411
vt 0.245048 0.829446
vt 0.255358 0.576411
vt 0.255358 0.829446
vt 0.245048 0.829446
vt 0.234738 0.576411
vt 0.245048 0.576411
vt 0.234738 0.576411
vt 0.245048 0.829446
vt 0.234738 0.829446
vt 0.234738 0.829446
vt 0.224428 0.576411
vt 0.234738 0.576411
vt 0.224428 0.576411
vt 0.234738 0.829446
vt 0.224428 0.829446
vt 0.214118 0.829446
vt 0.224428 0.576411
vt 0.224428 0.829446
vt 0.224428 0.576411
vt 0.214118 0.829446
vt 0.214118 0.576411
vt 0.203808 0.829446
vt 0.214118 0.576411
vt 0.214118 0.829446
vt 0.214118 0.576411
vt 0.203808 0.829446
vt 0.203808 0.576411
vt 0.203808 0.829446
vt 0.193498 0.576411
vt 0.203808 0.576411
vt 0.193498 0.576411
vt 0.203808 0.829446
vt 0.193498 0.829446
vt 0.193498 0.829446
vt 0.183188 0.576411
vt 0.193498 0.576411
vt 0.183188 0.576411
vt 0.193498 0.829446
vt 0.183188 0.829446
usemtl acmat_0
f 8/1/1 15/2/2 7/3/3
f 15/4/4 8/5/5 16/6/6
f 7/7/7 14/8/8 6/9/9
f 14/10/10 7/11/11 15/12/12
f 14/13/13 5/14/14 6/15/15
f 5/16/16 14/17/17 13/18/18
f 13/19/19 4/20/20 5/21/21
f 4/22/22 13/23/23 12/24/24
f 11/25/25 4/26/26 12/27/27
f 4/28/28 11/29/29 3/30/30
f 10/31/31 3/32/32 11/33/33
f 3/34/34 10/35/35 2/36/36
f 10/37/37 1/38/38 2/39/39
f 1/40/40 10/41/41 9/42/42
f 9/43/43 8/44/44 1/45/45
f 8/46/46 9/47/47 16/48/48
v 0.5 0.4 0.5
v 0.8 0.3 0.5
v 0.742705 0.3 0.329714
v 0.592705 0.3 0.124472
v 0.407295 0.3 0.124472
v 0.257295 0.3 0.329714
v 0.2 0.3 0.5
v 0.257295 0.3 0.670286
v 0.407295 0.3 0.775528
v 0.592705 0.3 0.775528
v 0.742705 0.3 0.670286
v 0.8 0.4 0.5
v 0.742705 0.4 0.329714
v 0.592705 0.4 0.124472
v 0.407295 0.4 0.124472
v 0.257295 0.4 0.329714
v 0.2 0.4 0.5
v 0.257295 0.4 0.670286
v 0.407295 0.4 0.775528
v 0.592705 0.4 0.775528
v 0.742705 0.4 0.670286
vn 0.801034 0 0.598618
vn 0.301156 0 0.953575
vn 0.301156 0 0.953575
vn 0.301156 0 0.953575
vn 0.801034 0 0.598618
vn 0.801034 0 0.598618
vn 0.301156 0 0.953575
vn -0.301156 0 0.953575
vn -0.301156 0 0.953575
vn -0.301156 0 0.953575
vn 0.301156 0 0.953575
vn 0.301156 0 0.953575
vn -0.301156 0 0.953575
vn -0.801035 0 0.598618
vn -0.801035 0 0.598618
vn -0.801035 0 0.598618
vn -0.301156 0 0.953575
vn -0.301156 0 0.953575
vn -0.801035 0 0.598618
vn -1 0 3.1444e-008
vn -0.801035 0 0.598618
vn -1 0 3.1444e-008
vn -0.801035 0 0.598618
vn -1 0 3.1444e-008
vn -1 0 3.1444e-008
vn -0.887988 0 -0.459867
vn -1 0 3.1444e-008
vn -0.887988 0 -0.459867
vn -1 0 3.1444e-008
vn -0.887988 0 -0.459867
vn -0.887988 0 -0.459867
vn -0.807363 0 -0.590056
vn -0.887988 0 -0.459867
vn -0.807363 0 -0.590056
vn -0.887988 0 -0.459867
vn -0.807363 0 -0.590056
vn 0 0 -1
vn 0 0 -1
vn 0 0 -1
vn 0 0 -1
vn 0 0 -1
vn 0 0 -1
vn 0.807363 0 -0.590056
vn 0.887988 0 -0.459867
vn 0.807363 0 -0.590056
vn 0.887988 0 -0.459867
vn 0.807363 0 -0.590056
vn 0.887988 0 -0.459867
vn 0.887988 0 -0.459867
vn 1 0 2.20108e-007
vn 0.887988 0 -0.459867
vn 1 0 2.20108e-007
vn 0.887988 0 -0.459867
vn 1 0 2.20108e-007
vn 1 0 2.20108e-007
vn 0.801034 0 0.598618
vn 1 0 2.20108e-007
vn 0.801034 0 0.598618
vn 1 0 2.20108e-007
vn 0.801034 0 0.598618
vn 0 1 0
vn 0 1 0
vn 0 1 0
vn 0 1 0
vn 0 1 0
vn 0 1 0
vn 0 1 0
vn 0 1 0
vn 0 1 0
vn 0 1 0
vn 0 1 0
vn 0 1 0
vn 0 1 0
vn 0 1 0
vn 0 1 0
vn 0 1 0
vn 0 1 0
vn 0 1 0
vn 0 1 0
vn 0 1 0
vn 0 1 0
vn 0 1 0
vn 0 1 0
vn 0 1 0
vn 0 1 0
vn 0 1 0
vn 0 1 0
vn 0 1 0
vn 0 1 0
vn 0 1 0
vt 1 0.5
vt 0.95 1
vt 0.95 0.5
vt 0.95 1
vt 1 0.5
vt 1 1
vt 0.95 0.5
vt 0.9 1
vt 0.9 0.5
vt 0.9 1
vt 0.95 0.5
vt 0.95 1
vt 0.9 0.5
vt 0.85 1
vt 0.85 0.5
vt 0.85 1
vt 0.9 0.5
vt 0.9 1
vt 0.85 1
vt 0.8 0.5
vt 0.85 0.5
vt 0.8 0.5
vt 0.85 1
vt 0.8 1
vt 0.8 1
vt 0.75 0.5
vt 0.8 0.5
vt 0.75 0.5
vt 0.8 1
vt 0.75 1
vt 0.75 1
vt 0.7 0.5
vt 0.75 0.5
vt 0.7 0.5
vt 0.75 1
vt 0.7 1
vt 0.65 1
vt 0.7 0.5
vt 0.7 1
vt 0.7 0.5
vt 0.65 1
vt 0.65 0.5
vt 0.65 1
vt 0.6 0.5
vt 0.65 0.5
vt 0.6 0.5
vt 0.65 1
vt 0.6 1
vt 0.6 1
vt 0.55 0.5
vt 0.6 0.5
vt 0.55 0.5
vt 0.6 1
vt 0.55 1
vt 0.55 1
vt 0.5 0.5
vt 0.55 0.5
vt 0.5 0.5
vt 0.55 1
vt 0.5 1
vt 0.598309 0.879419
vt 0.807941 1
vt 0.69206 1
vt 0.807941 1
vt 0.598309 0.879419
vt 0.75 0.779375
vt 0.75 0.779375
vt 0.901691 0.879419
vt 0.807941 1
vt 0.901691 0.879419
vt 0.75 0.779375
vt 0.9375 0.779375
vt 0.807941 0.617501
vt 0.9375 0.779375
vt 0.75 0.779375
vt 0.9375 0.779375
vt 0.807941 0.617501
vt 0.901691 0.679331
vt 0.598309 0.679332
vt 0.807941 0.617501
vt 0.75 0.779375
vt 0.807941 0.617501
vt 0.598309 0.679332
vt 0.69206 0.617501
vt 0.5625 0.779375
vt 0.75 0.779375
vt 0.598309 0.879419
vt 0.75 0.779375
vt 0.5625 0.779375
vt 0.598309 0.679332
f 27/49/49 36/50/50 26/51/51
f 36/52/52 27/53/53 37/54/54
f 26/55/55 35/56/56 25/57/57
f 35/58/58 26/59/59 36/60/60
f 25/61/61 34/62/62 24/63/63
f 34/64/64 25/65/65 35/66/66
f 34/67/67 23/68/68 24/69/69
f 23/70/70 34/71/71 33/72/72
f 33/73/73 22/74/74 23/75/75
f 22/76/76 33/77/77 32/78/78
f 32/79/79 21/80/80 22/81/81
f 21/82/82 32/83/83 31/84/84
f 30/85/85 21/86/86 31/87/87
f 21/88/88 30/89/89 20/90/90
f 30/91/91 19/92/92 20/93/93
f 19/94/94 30/95/95 29/96/96
f 29/97/97 18/98/98 19/99/99
f 18/100/100 29/101/101 28/102/102
f 28/103/103 27/104/104 18/105/105
f 27/106/106 28/107/107 37/108/108
f 32/109/109 30/110/110 31/111/111
f 30/112/112 32/113/113 17/114/114
f 17/115/115 29/116/116 30/117/117
f 29/118/118 17/119/119 28/120/120
f 36/121/121 28/122/122 17/123/123
f 28/124/124 36/125/125 37/126/126
f 34/127/127 36/128/128 17/129/129
f 36/130/130 34/131/131 35/132/132
f 33/133/133 17/134/134 32/135/135
f 17/136/136 33/137/137 34/138/138
g g1_group
v 0.6 0.8 0.3
v 0.400001 0.8 0.3
v 0.400001 0.6 0.3
v 0.6 0.6 0.3
v 0.436068 0.764132 0.4001
v 0.436068 0.636068 0.4001
v 0.564132 0.636068 0.4001
v 0.564132 0.764132 0.4001
vn 0 0 1
vn 0 0 1
vn 0 0 1
vn 0 0 1
vn 0 0 1
vn 0 0 1
vn 0 0.94139 0.337319
vn 0 0.94139 0.337319
vn 0 0.94139 0.337319
vn 0 0.94139 0.337319
vn 0 0.94139 0.337319
vn 0 0.94139 0.337319
vn 0.94139 0 0.33732
vn 0.94139 0 0.33732
vn 0.94139 0 0.33732
vn 0.94139 0 0.33732
vn 0.94139 0 0.33732
vn 0.94139 0 0.33732
vn 0 -0.940792 0.338985
vn 0 -0.940792 0.338985
vn 0 -0.940792 0.338985
vn 0 -0.940792 0.338985
vn 0 -0.940792 0.338985
vn 0 -0.940792 0.338985
vn -0.940792 0 0.338983
vn -0.940792 0 0.338983
vn -0.940792 0 0.338983
vn -0.940792 0 0.338983
vn -0.940792 0 0.338983
vn -0.940792 0 0.338983
vt 0.667788 0.330425
vt 0.517178 0.474752
vt 0.517178 0.330425
vt 0.517178 0.474752
vt 0.667788 0.330425
vt 0.667788 0.474752
vt 0.517178 0.474752
vt 0.691097 0.494272
vt 0.491756 0.494272
vt 0.691097 0.494272
vt 0.517178 0.474752
vt 0.667788 0.474752
vt 0.691097 0.494272
vt 0.667788 0.330425
vt 0.691097 0.310722
vt 0.667788 0.330425
vt 0.691097 0.494272
vt 0.667788 0.474752
vt 0.667788 0.330425
vt 0.491756 0.310722
vt 0.691097 0.310722
vt 0.491756 0.310722
vt 0.667788 0.330425
vt 0.517178 0.330425
vt 0.517178 0.330425
vt 0.491756 0.494272
vt 0.491756 0.310722
vt 0.491756 0.494272
vt 0.517178 0.330425
vt 0.517178 0.474752
f 44/139/139 42/140/140 43/141/141
f 42/142/142 44/143/143 45/144/144
f 42/145/145 38/146/146 39/147/147
f 38/148/148 42/149/149 45/150/150
f 38/151/151 44/152/152 41/153/153
f 44/154/154 38/155/155 45/156/156
f 44/157/157 40/158/158 41/159/159
f 40/160/160 44/161/161 43/162/162
f 43/163/163 39/164/164 40/165/165
f 39/166/166 43/167/167 42/168/168
v 0.400001 0.8 -8.19564e-008
v 0.6 0.8 -8.19564e-008
v 0.6 0.8 0.3
v 0.400001 0.8 0.3
v 0.400001 0.6 0.3
v 0.6 0.6 0.3
v 0.6 0.6 -8.19564e-008
v 0.400001 0.6 -8.19564e-008
vn 1 0 0
vn 1 0 0
vn 1 0 0
vn 1 0 0
vn 1 0 0
vn 1 0 0
vn -1 0 0
vn -1 0 0
vn -1 0 0
vn -1 0 0
vn -1 0 0
vn -1 0 0
vn 0 0 -1
vn 0 0 -1
vn 0 0 -1
vn 0 0 -1
vn 0 0 -1
vn 0 0 -1
vn 0 1 0
vn 0 1 0
vn 0 1 0
vn 0 1 0
vn 0 1 0
vn 0 1 0
vn 0 -1 0
vn 0 -1 0
vn 0 -1 0
vn 0 -1 0
vn 0 -1 0
vn 0 -1 0
vt 0.971332 0.281827
vt 0.721332 0.0318268
vt 0.971332 0.0318268
vt 0.721332 0.0318268
vt 0.971332 0.281827
vt 0.721332 0.281827
vt 0.971332 0.281827
vt 0.721332 0.0318268
vt 0.971332 0.0318268
vt 0.721332 0.0318268
vt 0.971332 0.281827
vt 0.721332 0.281827
vt 0.721332 0.281827
vt 0.971332 0.0318268
vt 0.971332 0.281827
vt 0.971332 0.0318268
vt 0.721332 0.281827
vt 0.721332 0.0318268
vt 0.721332 0.0318268
vt 0.971332 0.281827
vt 0.721332 0.281827
vt 0.971332 0.281827
vt 0.721332 0.0318268
vt 0.971332 0.0318268
vt 0.721332 0.0318268
vt 0.971332 0.281827
vt 0.721332 0.281827
vt 0.971332 0.281827
vt 0.721332 0.0318268
vt 0.971332 0.0318268
f 47/169/169 51/170/170 52/171/171
f 51/172/172 47/173/173 48/174/174
f 49/175/175 53/176/176 50/177/177
f 53/178/178 49/179/179 46/180/180
f 47/181/181 53/182/182 46/183/183
f 53/184/184 47/185/185 52/186/186
f 49/187/187 47/188/188 46/189/189
f 47/190/190 49/191/191 48/192/192
f 51/193/193 53/194/194 52/195/195
f 53/196/196 51/197/197 50/198/198
g g2_group
v 0.435868 0.764132 0.6
v 0.435868 0.636068 0.6
v 0.563932 0.636068 0.6
v 0.563932 0.764132 0.6
v 0.4 0.6 0.7001
v 0.599999 0.6 0.7001
v 0.599999 0.8 0.7001
v 0.4 0.8 0.7001
vn 0.940792 0 -0.338984
vn 0.940792 0 -0.338984
vn 0.940792 0 -0.338984
vn 0.940792 0 -0.338984
vn 0.940792 0 -0.338984
vn 0.940792 0 -0.338984
vn -6.1589e-008 -0.940792 -0.338986
vn -6.1589e-008 -0.940792 -0.338986
vn -6.1589e-008 -0.940792 -0.338986
vn -6.1589e-008 -0.940792 -0.338986
vn -6.1589e-008 -0.940792 -0.338986
vn -6.1589e-008 -0.940792 -0.338986
vn -0.94139 0 -0.337321
vn -0.94139 0 -0.337321
vn -0.94139 0 -0.337321
vn -0.94139 0 -0.337321
vn -0.94139 0 -0.337321
vn -0.94139 0 -0.337321
vn -6.12863e-008 0.94139 -0.33732
vn -6.12863e-008 0.94139 -0.33732
vn -6.12863e-008 0.94139 -0.33732
vn -6.12863e-008 0.94139 -0.33732
vn -6.12863e-008 0.94139 -0.33732
vn -6.12863e-008 0.94139 -0.33732
vn -4.65428e-007 0 -1
vn -4.65428e-007 0 -1
vn -4.65428e-007 0 -1
vn -4.65428e-007 0 -1
vn -4.65428e-007 0 -1
vn -4.65428e-007 0 -1
vt 0.517178 0.330425
vt 0.491756 0.494272
vt 0.491756 0.310722
vt 0.491756 0.494272
vt 0.517178 0.330425
vt 0.517178 0.474752
vt 0.491756 0.310722
vt 0.667788 0.330425
vt 0.517178 0.330425
vt 0.667788 0.330425
vt 0.491756 0.310722
vt 0.691097 0.310722
vt 0.691097 0.494272
vt 0.667788 0.330425
vt 0.691097 0.310722
vt 0.667788 0.330425
vt 0.691097 0.494272
vt 0.667788 0.474752
vt 0.667788 0.474752
vt 0.491756 0.494272
vt 0.517178 0.474752
vt 0.491756 0.494272
vt 0.667788 0.474752
vt 0.691097 0.494272
vt 0.517178 0.474752
vt 0.667788 0.330425
vt 0.667788 0.474752
vt 0.667788 0.330425
vt 0.517178 0.474752
vt 0.517178 0.330425
f 56/199/199 60/200/200 59/201/201
f 60/202/202 56/203/203 57/204/204
f 59/205/205 55/206/206 56/207/207
f 55/208/208 59/209/209 58/210/210
f 61/211/211 55/212/212 58/213/213
f 55/214/214 61/215/215 54/216/216
f 54/217/217 60/218/218 57/219/219
f 60/220/220 54/221/221 61/222/222
f 57/223/223 55/224/224 54/225/225
f 55/226/226 57/227/227 56/228/228
v 0.599999 0.6 1.0001
v 0.4 0.6 1.0001
v 0.4 0.6 0.7001
v 0.599999 0.6 0.7001
v 0.599999 0.8 0.7001
v 0.4 0.8 0.7001
v 0.4 0.8 1.0001
v 0.599999 0.8 1.0001
vn 0 -1 0
vn 0 -1 0
vn 0 -1 0
vn 0 -1 0
vn 0 -1 0
vn 0 -1 0
vn 0 1 0
vn 0 1 0
vn 0 1 0
vn 0 1 0
vn 0 1 0
vn 0 1 0
vn 0 0 1
vn 0 0 1
vn 0 0 1
vn 0 0 1
vn 0 0 1
vn 0 0 1
vn 1 0 0
vn 1 0 0
vn 1 0 0
vn 1 0 0
vn 1 0 0
vn 1 0 0
vn -1 0 0
vn -1 0 0
vn -1 0 0
vn -1 0 0
vn -1 0 0
vn -1 0 0
vt 0.971332 0.281827
vt 0.721332 0.0318268
vt 0.971332 0.0318268
vt 0.721332 0.0318268
vt 0.971332 0.281827
vt 0.721332 0.281827
vt 0.971332 0.281827
vt 0.721332 0.0318268
vt 0.971332 0.0318268
vt 0.721332 0.0318268
vt 0.971332 0.281827
vt 0.721332 0.281827
vt 0.971332 0.0318268
vt 0.721332 0.281827
vt 0.721332 0.0318268
vt 0.721332 0.281827
vt 0.971332 0.0318268
vt 0.971332 0.281827
vt 0.971332 0.281827
vt 0.721332 0.0318268
vt 0.971332 0.0318268
vt 0.721332 0.0318268
vt 0.971332 0.281827
vt 0.721332 0.281827
vt 0.971332 0.281827
vt 0.721332 0.0318268
vt 0.971332 0.0318268
vt 0.721332 0.0318268
vt 0.971332 0.281827
vt 0.721332 0.281827
f 62/229/229 64/230/230 65/231/231
f 64/232/232 62/233/233 63/234/234
f 68/235/235 66/236/236 67/237/237
f 66/238/238 68/239/239 69/240/240
f 62/241/241 68/242/242 63/243/243
f 68/244/244 62/245/245 69/246/246
f 66/247/247 62/248/248 65/249/249
f 62/250/250 66/251/251 69/252/252
f 68/253/253 64/254/254 63/255/255
f 64/256/256 68/257/257 67/258/258
g g3
v 0.535355 0.6 0.935355
v 0.5 0.6 0.95
v 0.464645 0.6 0.935355
v 0.45 0.6 0.9
v 0.464645 0.6 0.864645
v 0.5 0.6 0.85
v 0.535355 0.6 0.864645
v 0.55 0.6 0.9
v 0.535355 0.3 0.935355
v 0.5 0.3 0.95
v 0.464645 0.3 0.935355
v 0.45 0.3 0.9
v 0.464645 0.3 0.864645
v 0.5 0.3 0.85
v 0.535355 0.3 0.864645
v 0.55 0.3 0.9
vn 0.923878 0 0.382688
vn 0.707105 0 0.707109
vn 0.923878 0 0.382688
vn 0.707105 0 0.707109
vn 0.923878 0 0.382688
vn 0.707105 0 0.707109
vn 0.707105 0 -0.707109
vn 0.923877 0 -0.382689
vn 0.707105 0 -0.707109
vn 0.923877 0 -0.382689
vn 0.707105 0 -0.707109
vn 0.923877 0 -0.382689
vn 0.707105 0 -0.707109
vn 0 0 -1
vn 0 0 -1
vn 0 0 -1
vn 0.707105 0 -0.707109
vn 0.707105 0 -0.707109
vn 0 0 -1
vn -0.707105 0 -0.707109
vn -0.707105 0 -0.707109
vn -0.707105 0 -0.707109
vn 0 0 -1
vn 0 0 -1
vn -0.923877 0 -0.382689
vn -0.707105 0 -0.707109
vn -0.923877 0 -0.382689
vn -0.707105 0 -0.707109
vn -0.923877 0 -0.382689
vn -0.707105 0 -0.707109
vn -0.707105 0 0.707109
vn -0.923878 0 0.382688
vn -0.707105 0 0.707109
vn -0.923878 0 0.382688
vn -0.707105 0 0.707109
vn -0.923878 0 0.382688
vn 0 0 1
vn -0.707105 0 0.707109
vn -0.707105 0 0.707109
vn -0.707105 0 0.707109
vn 0 0 1
vn 0 0 1
vn 0.707105 0 0.707109
vn 0 0 1
vn 0 0 1
vn 0 0 1
vn 0.707105 0 0.707109
vn 0.707105 0 0.707109
vt 0.193498 0.829446
vt 0.183188 0.576411
vt 0.193498 0.576411
vt 0.183188 0.576411
vt 0.193498 0.829446
vt 0.183188 0.829446
vt 0.203808 0.829446
vt 0.193498 0.576411
vt 0.203808 0.576411
vt 0.193498 0.576411
vt 0.203808 0.829446
vt 0.193498 0.829446
vt 0.203808 0.829446
vt 0.214118 0.576411
vt 0.214118 0.829446
vt 0.214118 0.576411
vt 0.203808 0.829446
vt 0.203808 0.576411
vt 0.214118 0.829446
vt 0.224428 0.576411
vt 0.224428 0.829446
vt 0.224428 0.576411
vt 0.214118 0.829446
vt 0.214118 0.576411
vt 0.234738 0.829446
vt 0.224428 0.576411
vt 0.234738 0.576411
vt 0.224428 0.576411
vt 0.234738 0.829446
vt 0.224428 0.829446
vt 0.245048 0.829446
vt 0.234738 0.576411
vt 0.245048 0.576411
vt 0.234738 0.576411
vt 0.245048 0.829446
vt 0.234738 0.829446
vt 0.255358 0.576411
vt 0.245048 0.829446
vt 0.245048 0.576411
vt 0.245048 0.829446
vt 0.255358 0.576411
vt 0.255358 0.829446
vt 0.265669 0.576411
vt 0.255358 0.829446
vt 0.255358 0.576411
vt 0.255358 0.829446
vt 0.265669 0.576411
vt 0.265669 0.829446
f 77/259/259 78/260/260 85/261/261
f 78/262/262 77/263/263 70/264/264
f 76/265/265 85/266/266 84/267/267
f 85/268/268 76/269/269 77/270/270
f 76/271/271 83/272/272 75/273/273
f 83/274/274 76/275/275 84/276/276
f 75/277/277 82/278/278 74/279/279
f 82/280/280 75/281/281 83/282/282
f 73/283/283 82/284/284 81/285/285
f 82/286/286 73/287/287 74/288/288
f 72/289/289 81/290/290 80/291/291
f 81/292/292 72/293/293 73/294/294
f 79/295/295 72/296/296 80/297/297
f 72/298/298 79/299/299 71/300/300
f 78/301/301 71/302/302 79/303/303
f 71/304/304 78/305/305 70/306/306
v 0.823606 0.3 0.732089
v 0.623606 0.3 0.975528
v 0.376393 0.3 0.975528
v 0.176393 0.3 0.732089
v 0.0999999 0.3 0.5
v 0.176393 0.3 0.267911
v 0.376393 0.3 0.124472
v 0.623606 0.3 0.124472
v 0.823606 0.3 0.267911
v 0.9 0.3 0.5
v 0.823606 0.2 0.732089
v 0.623606 0.2 0.975528
v 0.376393 0.2 0.975528
v 0.176393 0.2 0.732089
v 0.0999999 0.2 0.5
v 0.176393 0.2 0.267911
v 0.376393 0.2 0.124472
v 0.623606 0.2 0.124472
v 0.823606 0.2 0.267911
v 0.9 0.2 0.5
v 0.5 0.3 0.5
vn 1 0 2.6669e-007
vn 0.876204 0 0.48194
vn 1 0 2.6669e-007
vn 0.876204 0 0.48194
vn 1 0 2.6669e-007
vn 0.876204 0 0.48194
vn 0.806077 0 -0.591811
vn 1 0 2.6669e-007
vn 0.806077 0 -0.591811
vn 1 0 2.6669e-007
vn 0.806077 0 -0.591811
vn 1 0 2.6669e-007
vn 0.806077 0 -0.591811
vn 0.306093 0 -0.952002
vn 0.306093 0 -0.952002
vn 0.306093 0 -0.952002
vn 0.806077 0 -0.591811
vn 0.806077 0 -0.591811
vn 0.306093 0 -0.952002
vn -0.306093 0 -0.952002
vn -0.306093 0 -0.952002
vn -0.306093 0 -0.952002
vn 0.306093 0 -0.952002
vn 0.306093 0 -0.952002
vn -0.306093 0 -0.952002
vn -0.806077 0 -0.591811
vn -0.806077 0 -0.591811
vn -0.806077 0 -0.591811
vn -0.306093 0 -0.952002
vn -0.306093 0 -0.952002
vn -1 0 9.41257e-008
vn -0.806077 0 -0.591811
vn -1 0 9.41257e-008
vn -0.806077 0 -0.591811
vn -1 0 9.41257e-008
vn -0.806077 0 -0.591811
vn -0.876204 0 0.48194
vn -1 0 9.41257e-008
vn -0.876204 0 0.48194
vn -1 0 9.41257e-008
vn -0.876204 0 0.48194
vn -1 0 9.41257e-008
vn -0.772676 0 0.634801
vn -0.876204 0 0.48194
vn -0.772676 0 0.634801
vn -0.876204 0 0.48194
vn -0.772676 0 0.634801
vn -0.876204 0 0.48194
vn -4.82212e-007 0 1
vn -4.82212e-007 0 1
vn -4.82212e-007 0 1
vn -4.82212e-007 0 1
vn -4.82212e-007 0 1
vn -4.82212e-007 0 1
vn 0.876204 0 0.48194
vn 0.772676 0 0.634801
vn 0.876204 0 0.48194
vn 0.772676 0 0.634801
vn 0.876204 0 0.48194
vn 0.772676 0 0.634801
vn 0 1 0
vn 0 1 0
vn 0 1 0
vn 0 1 0
vn 0 1 0
vn 0 1 0
vn 0 1 0
vn 0 1 0
vn 0 1 0
vn 0 1 0
vn 0 1 0
vn 0 1 0
vn 0 1 0
vn 0 1 0
vn 0 1 0
vn 0 1 0
vn 0 1 0
vn 0 1 0
vn 0 1 0
vn 0 1 0
vn 0 1 0
vn 0 1 0
vn 0 1 0
vn 0 1 0
vn 0 1 0
vn 0 1 0
vn 0 1 0
vn 0 1 0
vn 0 1 0
vn 0 1 0
vt 0.55 1
vt 0.5 0.5
vt 0.55 0.5
vt 0.5 0.5
vt 0.55 1
vt 0.5 1
vt 0.6 1
vt 0.55 0.5
vt 0.6 0.5
vt 0.55 0.5
vt 0.6 1
vt 0.55 1
vt 0.6 1
vt 0.65 0.5
vt 0.65 1
vt 0.65 0.5
vt 0.6 1
vt 0.6 0.5
vt 0.65 1
vt 0.7 0.5
vt 0.7 1
vt 0.7 0.5
vt 0.65 1
vt 0.65 0.5
vt 0.7 1
vt 0.75 0.5
vt 0.75 1
vt 0.75 0.5
vt 0.7 1
vt 0.7 0.5
vt 0.8 1
vt 0.75 0.5
vt 0.8 0.5
vt 0.75 0.5
vt 0.8 1
vt 0.75 1
vt 0.85 1
vt 0.8 0.5
vt 0.85 0.5
vt 0.8 0.5
vt 0.85 1
vt 0.8 1
vt 0.9 1
vt 0.85 0.5
vt 0.9 0.5
vt 0.85 0.5
vt 0.9 1
vt 0.85 1
vt 0.95 0.5
vt 0.9 1
vt 0.9 0.5
vt 0.9 1
vt 0.95 0.5
vt 0.95 1
vt 1 1
vt 0.95 0.5
vt 1 0.5
vt 0.95 0.5
vt 1 1
vt 0.95 1
vt 0.75 0.779375
vt 0.952254 0.915729
vt 0.827254 1
vt 0.952254 0.915729
vt 0.75 0.779375
vt 1 0.779375
vt 0.827254 0.5
vt 1 0.779375
vt 0.75 0.779375
vt 1 0.779375
vt 0.827254 0.5
vt 0.952254 0.643022
vt 0.547746 0.643022
vt 0.827254 0.5
vt 0.75 0.779375
vt 0.827254 0.5
vt 0.547746 0.643022
vt 0.672746 0.5
vt 0.5 0.779375
vt 0.75 0.779375
vt 0.547746 0.915729
vt 0.75 0.779375
vt 0.5 0.779375
vt 0.547746 0.643022
vt 0.547746 0.915729
vt 0.827254 1
vt 0.672746 1
vt 0.827254 1
vt 0.547746 0.915729
vt 0.75 0.779375
f 95/307/307 96/308/308 105/309/309
f 96/310/310 95/311/311 86/312/312
f 94/313/313 105/314/314 104/315/315
f 105/316/316 94/317/317 95/318/318
f 94/319/319 103/320/320 93/321/321
f 103/322/322 94/323/323 104/324/324
f 93/325/325 102/326/326 92/327/327
f 102/328/328 93/329/329 103/330/330
f 92/331/331 101/332/332 91/333/333
f 101/334/334 92/335/335 102/336/336
f 90/337/337 101/338/338 100/339/339
f 101/340/340 90/341/341 91/342/342
f 89/343/343 100/344/344 99/345/345
f 100/346/346 89/347/347 90/348/348
f 88/349/349 99/350/350 98/351/351
f 99/352/352 88/353/353 89/354/354
f 97/355/355 88/356/356 98/357/357
f 88/358/358 97/359/359 87/360/360
f 86/361/361 97/362/362 96/363/363
f 97/364/364 86/365/365 87/366/366
f 106/367/367 94/368/368 93/369/369
f 94/370/370 106/371/371 95/372/372
f 87/373/373 95/374/374 106/375/375
f 95/376/376 87/377/377 86/378/378
f 89/379/379 87/380/380 106/381/381
f 87/382/382 89/383/383 88/384/384
f 90/385/385 106/386/386 91/387/387
f 106/388/388 90/389/389 89/390/390
f 91/391/391 93/392/392 92/393/393
f 93/394/394 91/395/395 106/396/396
v 0 0 2.98023e-008
v 1 0 2.98023e-008
v 1 0 1
v 0 0 1
v 0 0.2 1
v 1 0.2 1
v 1 0.2 2.98023e-008
v 0 0.2 2.98023e-008
vn 0 -1 0
vn 0 -1 0
vn 0 -1 0
vn 0 -1 0
vn 0 -1 0
vn 0 -1 0
vn 0 1 0
vn 0 1 0
vn 0 1 0
vn 0 1 0
vn 0 1 0
vn 0 1 0
vn 0 0 1
vn 0 0 1
vn 0 0 1
vn 0 0 1
vn 0 0 1
vn 0 0 1
vn 0 0 -1
vn 0 0 -1
vn 0 0 -1
vn 0 0 -1
vn 0 0 -1
vn 0 0 -1
vn -1 0 0
vn -1 0 0
vn -1 0 0
vn -1 0 0
vn -1 0 0
vn -1 0 0
vn 1 0 0
vn 1 0 0
vn 1 0 0
vn 1 0 0
vn 1 0 0
vn 1 0 0
vt 0.5 0.5
vt 0 0
vt 0.5 0
vt 0 0
vt 0.5 0.5
vt 0 0.5
vt 0.5 0.5
vt 0 1
vt 0 0.5
vt 0 1
vt 0.5 0.5
vt 0.5 1
vt 0.5 0.505
vt 4.47035e-008 0.495
vt 0.5 0.495
vt 4.47035e-008 0.495
vt 0.5 0.505
vt 4.47035e-008 0.505
vt 4.47035e-008 0.495
vt 0.5 0.505
vt 4.47035e-008 0.505
vt 0.5 0.505
vt 4.47035e-008 0.495
vt 0.5 0.495
vt 4.47035e-008 0.505
vt 0.5 0.495
vt 0.5 0.505
vt 0.5 0.495
vt 4.47035e-008 0.505
vt 4.47035e-008 0.495
vt 4.47035e-008 0.505
vt 0.5 0.495
vt 0.5 0.505
vt 0.5 0.495
vt 4.47035e-008 0.505
vt 4.47035e-008 0.495
f 109/397/397 107/398/398 108/399/399
f 107/400/400 109/401/401 110/402/402
f 111/403/403 113/404/404 114/405/405
f 113/406/406 111/407/407 112/408/408
f 109/409/409 111/410/410 110/411/411
f 111/412/412 109/413/413 112/414/414
f 113/415/415 107/416/416 114/417/417
f 107/418/418 113/419/419 108/420/420
f 111/421/421 107/422/422 110/423/423
f 107/424/424 111/425/425 114/426/426
f 113/427/427 109/428/428 108/429/429
f 109/430/430 113/431/431 112/432/432
