mtllib skycrystal.mtl
g g0
v 0.508373 0.0992166 0.50005
v 0.504211 0.0992166 0.492698
v 0.495889 0.0992166 0.492698
v 0.491727 0.0992166 0.50005
v 0.495889 0.0992166 0.507402
v 0.504211 0.0992166 0.507402
v 0.506621 0.899217 0.50005
v 0.503336 0.899217 0.494245
v 0.496765 0.899217 0.494245
v 0.493479 0.899217 0.50005
v 0.503336 0.899217 0.505855
v 0.496765 0.899217 0.505855
v 0.62958 0.299167 0.5
v 0.56479 0.299167 0.385536
v 0.43521 0.299167 0.385536
v 0.37042 0.299167 0.5
v 0.43521 0.299167 0.614465
v 0.56479 0.299167 0.614465
v 0.62958 0.699167 0.5
v 0.56479 0.699167 0.385536
v 0.43521 0.699167 0.385536
v 0.37042 0.699167 0.5
v 0.43521 0.699167 0.614465
v 0.56479 0.699167 0.614465
v 0.50005 0.899217 0.50005
v 0.50005 0.0992166 0.50005
vn 0 -1 0
vn 0 -1 0
vn 0 -1 0
vn 0 -1 0
vn 0 -1 0
vn 0 -1 0
vn 0 -1 0
vn 0 -1 0
vn 0 -1 0
vn 0 -1 0
vn 0 -1 0
vn 0 -1 0
vn 0 -1 0
vn 0 -1 0
vn 0 -1 0
vn 0 -1 0
vn 0 -1 0
vn 0 -1 0
vn 0.844761 -0.240296 0.478159
vn 0.769759 -0.466511 0.435706
vn 0.769759 -0.466511 0.435706
vn 0.769759 -0.466511 0.435706
vn 0.844761 -0.240296 0.478159
vn 0.844761 -0.240296 0.478159
vn 0.844741 -0.24039 -0.478148
vn 0.76968 -0.466681 -0.435662
vn 0.76968 -0.466681 -0.435662
vn 0.76968 -0.466681 -0.435662
vn 0.844741 -0.24039 -0.478148
vn 0.844741 -0.24039 -0.478148
vn 0 -0.243521 -0.969896
vn 0 -0.47238 -0.881395
vn 0 -0.243521 -0.969896
vn 0 -0.47238 -0.881395
vn 0 -0.243521 -0.969896
vn 0 -0.47238 -0.881395
vn -0.844704 -0.240555 -0.47813
vn -0.769541 -0.466982 -0.435585
vn -0.769541 -0.466982 -0.435585
vn -0.769541 -0.466982 -0.435585
vn -0.844704 -0.240555 -0.47813
vn -0.844704 -0.240555 -0.47813
vn -0.844725 -0.240461 0.478141
vn -0.76962 -0.466811 0.43563
vn -0.76962 -0.466811 0.43563
vn -0.76962 -0.466811 0.43563
vn -0.844725 -0.240461 0.478141
vn -0.844725 -0.240461 0.478141
vn 0 -0.472038 0.881578
vn 0 -0.243333 0.969943
vn 0 -0.243333 0.969943
vn 0 -0.243333 0.969943
vn 0 -0.472038 0.881578
vn 0 -0.472038 0.881578
vn 0 1 0
vn 0 1 0
vn 0 1 0
vn 0 1 0
vn 0 1 0
vn 0 1 0
vn 0 1 0
vn 0 1 0
vn 0 1 0
vn 0 1 0
vn 0 1 0
vn 0 1 0
vn 0 1 0
vn 0 1 0
vn 0 1 0
vn 0 1 0
vn 0 1 0
vn 0 1 0
vn 0.767417 0.471578 0.43438
vn 0.844158 0.24308 0.477818
vn 0.844158 0.24308 0.477818
vn 0.844158 0.24308 0.477818
vn 0.767417 0.471578 0.43438
vn 0.767417 0.471578 0.43438
vn 0.767338 0.471747 -0.434336
vn 0.844137 0.243173 -0.477807
vn 0.844137 0.243173 -0.477807
vn 0.844137 0.243173 -0.477807
vn 0.767338 0.471747 -0.434336
vn 0.767338 0.471747 -0.434336
vn 0 0.477469 -0.878649
vn 0 0.246324 -0.969187
vn 0 0.246324 -0.969187
vn 0 0.246324 -0.969187
vn 0 0.477469 -0.878649
vn 0 0.477469 -0.878649
vn -0.767198 0.472046 -0.434258
vn -0.844101 0.243337 -0.477787
vn -0.844101 0.243337 -0.477787
vn -0.844101 0.243337 -0.477787
vn -0.767198 0.472046 -0.434258
vn -0.767198 0.472046 -0.434258
vn -0.767277 0.471876 0.434302
vn -0.844121 0.243244 0.477799
vn -0.844121 0.243244 0.477799
vn -0.844121 0.243244 0.477799
vn -0.767277 0.471876 0.434302
vn -0.767277 0.471876 0.434302
vn 0 0.246137 0.969235
vn 0 0.47713 0.878833
vn 0 0.246137 0.969235
vn 0 0.47713 0.878833
vn 0 0.246137 0.969235
vn 0 0.47713 0.878833
vn 0.844158 0.24308 0.477818
vn 0.844761 -0.240296 0.478159
vn 0.844761 -0.240296 0.478159
vn 0.844761 -0.240296 0.478159
vn 0.844158 0.24308 0.477818
vn 0.844158 0.24308 0.477818
vn 0.844137 0.243173 -0.477807
vn 0.844741 -0.24039 -0.478148
vn 0.844741 -0.24039 -0.478148
vn 0.844741 -0.24039 -0.478148
vn 0.844137 0.243173 -0.477807
vn 0.844137 0.243173 -0.477807
vn 0 0.246324 -0.969187
vn 0 -0.243521 -0.969896
vn 0 0.246324 -0.969187
vn 0 -0.243521 -0.969896
vn 0 0.246324 -0.969187
vn 0 -0.243521 -0.969896
vn -0.844101 0.243337 -0.477787
vn -0.844704 -0.240555 -0.47813
vn -0.844704 -0.240555 -0.47813
vn -0.844704 -0.240555 -0.47813
vn -0.844101 0.243337 -0.477787
vn -0.844101 0.243337 -0.477787
vn -0.844121 0.243244 0.477799
vn -0.844725 -0.240461 0.478141
vn -0.844725 -0.240461 0.478141
vn -0.844725 -0.240461 0.478141
vn -0.844121 0.243244 0.477799
vn -0.844121 0.243244 0.477799
vn 0 -0.243333 0.969943
vn 0 0.246137 0.969235
vn 0 -0.243333 0.969943
vn 0 0.246137 0.969235
vn 0 -0.243333 0.969943
vn 0 0.246137 0.969235
vt 0.407144 0.525326
vt 0.475802 0.525326
vt 0.441766 0.525326
vt 0.475802 0.525326
vt 0.407144 0.525326
vt 0.355726 0.525326
vt 0.355726 0.525326
vt 0.30431 0.525326
vt 0.269343 0.525326
vt 0.30431 0.525326
vt 0.355726 0.525326
vt 0.339062 0.525326
vt 0.372722 0.525326
vt 0.355726 0.525326
vt 0.407144 0.525326
vt 0.355726 0.525326
vt 0.372722 0.525326
vt 0.339062 0.525326
vt 0.407341 0.637199
vt 0.372722 0.525326
vt 0.407144 0.525326
vt 0.372722 0.525326
vt 0.407341 0.637199
vt 0.37265 0.637199
vt 0.442031 0.637199
vt 0.407144 0.525326
vt 0.441766 0.525326
vt 0.407144 0.525326
vt 0.442031 0.637199
vt 0.407341 0.637199
vt 0.442031 0.637199
vt 0.475802 0.525326
vt 0.47588 0.637199
vt 0.475802 0.525326
vt 0.442031 0.637199
vt 0.441766 0.525326
vt 0.304111 0.637199
vt 0.269343 0.525326
vt 0.30431 0.525326
vt 0.269343 0.525326
vt 0.304111 0.637199
vt 0.269421 0.637199
vt 0.338801 0.637199
vt 0.30431 0.525326
vt 0.339062 0.525326
vt 0.30431 0.525326
vt 0.338801 0.637199
vt 0.304111 0.637199
vt 0.339062 0.525326
vt 0.37265 0.637199
vt 0.338801 0.637199
vt 0.37265 0.637199
vt 0.339062 0.525326
vt 0.372722 0.525326
vt 0.33913 0.972932
vt 0.407092 0.972932
vt 0.355726 0.972932
vt 0.407092 0.972932
vt 0.33913 0.972932
vt 0.372743 0.972932
vt 0.304363 0.972932
vt 0.355726 0.972932
vt 0.269331 0.972932
vt 0.355726 0.972932
vt 0.304363 0.972932
vt 0.33913 0.972932
vt 0.355726 0.972932
vt 0.441696 0.972932
vt 0.47579 0.972932
vt 0.441696 0.972932
vt 0.355726 0.972932
vt 0.407092 0.972932
vt 0.407092 0.972932
vt 0.37265 0.861002
vt 0.407341 0.861002
vt 0.37265 0.861002
vt 0.407092 0.972932
vt 0.372743 0.972932
vt 0.441696 0.972932
vt 0.407341 0.861002
vt 0.442031 0.861002
vt 0.407341 0.861002
vt 0.441696 0.972932
vt 0.407092 0.972932
vt 0.47579 0.972932
vt 0.442031 0.861002
vt 0.47588 0.861002
vt 0.442031 0.861002
vt 0.47579 0.972932
vt 0.441696 0.972932
vt 0.304363 0.972932
vt 0.269421 0.861002
vt 0.304111 0.861002
vt 0.269421 0.861002
vt 0.304363 0.972932
vt 0.269331 0.972932
vt 0.33913 0.972932
vt 0.304111 0.861002
vt 0.338801 0.861002
vt 0.304111 0.861002
vt 0.33913 0.972932
vt 0.304363 0.972932
vt 0.37265 0.861002
vt 0.33913 0.972932
vt 0.338801 0.861002
vt 0.33913 0.972932
vt 0.37265 0.861002
vt 0.372743 0.972932
vt 0.407341 0.861002
vt 0.37265 0.637199
vt 0.407341 0.637199
vt 0.37265 0.637199
vt 0.407341 0.861002
vt 0.37265 0.861002
vt 0.442031 0.861002
vt 0.407341 0.637199
vt 0.442031 0.637199
vt 0.407341 0.637199
vt 0.442031 0.861002
vt 0.407341 0.861002
vt 0.442031 0.861002
vt 0.47588 0.637199
vt 0.47588 0.861002
vt 0.47588 0.637199
vt 0.442031 0.861002
vt 0.442031 0.637199
vt 0.304111 0.861002
vt 0.269421 0.637199
vt 0.304111 0.637199
vt 0.269421 0.637199
vt 0.304111 0.861002
vt 0.269421 0.861002
vt 0.338801 0.861002
vt 0.304111 0.637199
vt 0.338801 0.637199
vt 0.304111 0.637199
vt 0.338801 0.861002
vt 0.304111 0.861002
vt 0.37265 0.637199
vt 0.338801 0.861002
vt 0.338801 0.637199
vt 0.338801 0.861002
vt 0.37265 0.637199
vt 0.37265 0.861002
usemtl acmat_0
f 1/1/1 3/2/2 2/3/3
f 3/4/4 1/5/5 26/6/6
f 26/7/7 4/8/8 3/9/9
f 4/10/10 26/11/11 5/12/12
f 6/13/13 26/14/14 1/15/15
f 26/16/16 6/17/17 5/18/18
f 13/19/19 6/20/20 1/21/21
f 6/22/22 13/23/23 18/24/24
f 14/25/25 1/26/26 2/27/27
f 1/28/28 14/29/29 13/30/30
f 14/31/31 3/32/32 15/33/33
f 3/34/34 14/35/35 2/36/36
f 16/37/37 3/38/38 4/39/39
f 3/40/40 16/41/41 15/42/42
f 17/43/43 4/44/44 5/45/45
f 4/46/46 17/47/47 16/48/48
f 5/49/49 18/50/50 17/51/51
f 18/52/52 5/53/53 6/54/54
f 12/55/55 7/56/56 25/57/57
f 7/58/58 12/59/59 11/60/60
f 10/61/61 25/62/62 9/63/63
f 25/64/64 10/65/65 12/66/66
f 25/67/67 8/68/68 9/69/69
f 8/70/70 25/71/71 7/72/72
f 7/73/73 24/74/74 19/75/75
f 24/76/76 7/77/77 11/78/78
f 8/79/79 19/80/80 20/81/81
f 19/82/82 8/83/83 7/84/84
f 9/85/85 20/86/86 21/87/87
f 20/88/88 9/89/89 8/90/90
f 10/91/91 21/92/92 22/93/93
f 21/94/94 10/95/95 9/96/96
f 12/97/97 22/98/98 23/99/99
f 22/100/100 12/101/101 10/102/102
f 24/103/103 12/104/104 23/105/105
f 12/106/106 24/107/107 11/108/108
f 19/109/109 18/110/110 13/111/111
f 18/112/112 19/113/113 24/114/114
f 20/115/115 13/116/116 14/117/117
f 13/118/118 20/119/119 19/120/120
f 20/121/121 15/122/122 21/123/123
f 15/124/124 20/125/125 14/126/126
f 22/127/127 15/128/128 16/129/129
f 15/130/130 22/131/131 21/132/132
f 23/133/133 16/134/134 17/135/135
f 16/136/136 23/137/137 22/138/138
f 18/139/139 23/140/140 17/141/141
f 23/142/142 18/143/143 24/144/144
