mtllib sponge.mtl
g g0
v 0.147847 0.332295 0.477151
v 0.216192 0.332295 0.683908
v 0.395122 0.332295 0.811692
v 0.616294 0.332295 0.811692
v 0.795223 0.332295 0.683909
v 0.863569 0.332295 0.477151
v 0.795224 0.332295 0.270393
v 0.616294 0.332295 0.14261
v 0.395123 0.332295 0.14261
v 0.216192 0.332295 0.270393
vn 2.52241e-013 -1 -1.44141e-007
vn 0 -1 0
vn 0 -1 0
vn 0 -1 0
vn 2.52241e-013 -1 -1.44141e-007
vn 2.52241e-013 -1 -1.44141e-007
vn 2.52241e-013 -1 -1.44141e-007
vn 2.52241e-013 -1 -1.44141e-007
vn 2.52241e-013 -1 -1.44141e-007
vn 2.52241e-013 -1 -1.44141e-007
vn 2.52241e-013 -1 -1.44141e-007
vn 2.52241e-013 -1 -1.44141e-007
vn 2.52241e-013 -1 -1.44141e-007
vn 0 -1 0
vn 2.52241e-013 -1 -1.44141e-007
vn 0 -1 0
vn 2.52241e-013 -1 -1.44141e-007
vn 0 -1 0
vn 0 -1 0
vn 0 -1 0
vn 0 -1 0
vn 0 -1 0
vn 0 -1 0
vn 0 -1 0
vt 0.046265 0.753389
vt 0.376623 0.644786
vt 0.0811418 0.644786
vt 0.376623 0.644786
vt 0.046265 0.753389
vt 0.411499 0.753389
vt 0.046265 0.753389
vt 0.376623 0.861992
vt 0.411499 0.753389
vt 0.376623 0.861992
vt 0.046265 0.753389
vt 0.0811418 0.861992
vt 0.0811418 0.861992
vt 0.285314 0.929113
vt 0.376623 0.861992
vt 0.285314 0.929113
vt 0.0811418 0.861992
vt 0.17245 0.929113
vt 0.0811418 0.644786
vt 0.285314 0.577666
vt 0.17245 0.577666
vt 0.285314 0.577666
vt 0.0811418 0.644786
vt 0.376623 0.644786
usemtl acmat_0
f 6/1/1 10/2/2 7/3/3
f 10/4/4 6/5/5 1/6/6
f 6/7/7 2/8/8 1/9/9
f 2/10/10 6/11/11 5/12/12
f 5/13/13 3/14/14 2/15/15
f 3/16/16 5/17/17 4/18/18
f 7/19/19 9/20/20 8/21/21
f 9/22/22 7/23/23 10/24/24
v 0.216192 0.332295 0.270393
v 0.395123 0.332295 0.14261
v 0.616294 0.332295 0.14261
v 0.795224 0.332295 0.270393
v 0.863569 0.332295 0.477151
v 0.795223 0.332295 0.683909
v 0.616294 0.332295 0.811692
v 0.395122 0.332295 0.811692
v 0.216192 0.332295 0.683908
v 0.147847 0.332295 0.477151
v 0.074433 0.777029 0.477151
v 0.936983 0.777029 0.477151
v 0.156799 0.777029 0.726324
v 0.372437 0.777029 0.880322
v 0.638979 0.777029 0.880322
v 0.854617 0.777029 0.726325
v 0.638979 0.777029 0.0739801
v 0.372437 0.777029 0.0739801
v 0.156799 0.777029 0.227977
v 0.854617 0.777029 0.227977
vn -0.301161 -0.160417 -0.939983
vn -0.794458 -0.161923 -0.585335
vn -0.794458 -0.161923 -0.585335
vn -0.794458 -0.161923 -0.585335
vn -0.301161 -0.160417 -0.939983
vn -0.301161 -0.160417 -0.939983
vn 0.301162 -0.160417 -0.939983
vn -0.301161 -0.160417 -0.939983
vn -0.301161 -0.160417 -0.939983
vn -0.301161 -0.160417 -0.939983
vn 0.301162 -0.160417 -0.939983
vn 0.301162 -0.160417 -0.939983
vn 0.301162 -0.160417 -0.939983
vn 0.794459 -0.161923 -0.585334
vn 0.301162 -0.160417 -0.939983
vn 0.794459 -0.161923 -0.585334
vn 0.301162 -0.160417 -0.939983
vn 0.794459 -0.161923 -0.585334
vn 0.794459 -0.161923 -0.585334
vn 0.986647 -0.16287 2.05325e-006
vn 0.794459 -0.161923 -0.585334
vn 0.986647 -0.16287 2.05325e-006
vn 0.794459 -0.161923 -0.585334
vn 0.986647 -0.16287 2.05325e-006
vn 0.986647 -0.16287 2.05325e-006
vn 0.794459 -0.161924 0.585334
vn 0.794459 -0.161924 0.585334
vn 0.794459 -0.161924 0.585334
vn 0.986647 -0.16287 2.05325e-006
vn 0.986647 -0.16287 2.05325e-006
vn 0.794459 -0.161924 0.585334
vn 0.301164 -0.160418 0.939982
vn 0.301164 -0.160418 0.939982
vn 0.301164 -0.160418 0.939982
vn 0.794459 -0.161924 0.585334
vn 0.794459 -0.161924 0.585334
vn -0.301164 -0.160418 0.939982
vn 0.301164 -0.160418 0.939982
vn -0.301164 -0.160418 0.939982
vn 0.301164 -0.160418 0.939982
vn -0.301164 -0.160418 0.939982
vn 0.301164 -0.160418 0.939982
vn -0.79446 -0.161923 0.585333
vn -0.301164 -0.160418 0.939982
vn -0.79446 -0.161923 0.585333
vn -0.301164 -0.160418 0.939982
vn -0.79446 -0.161923 0.585333
vn -0.301164 -0.160418 0.939982
vn -0.79446 -0.161923 0.585333
vn -0.986648 -0.16287 4.07515e-007
vn -0.79446 -0.161923 0.585333
vn -0.986648 -0.16287 4.07515e-007
vn -0.79446 -0.161923 0.585333
vn -0.986648 -0.16287 4.07515e-007
vn -0.986648 -0.16287 4.07515e-007
vn -0.794458 -0.161923 -0.585335
vn -0.986648 -0.16287 4.07515e-007
vn -0.794458 -0.161923 -0.585335
vn -0.986648 -0.16287 4.07515e-007
vn -0.794458 -0.161923 -0.585335
vt 0.628944 0.473024
vt 0.692616 0.275759
vt 0.692616 0.473024
vt 0.692616 0.275759
vt 0.628944 0.473024
vt 0.628944 0.275759
vt 0.565272 0.473024
vt 0.628944 0.275759
vt 0.628944 0.473024
vt 0.628944 0.275759
vt 0.565272 0.473024
vt 0.565272 0.275759
vt 0.565272 0.473024
vt 0.5016 0.275759
vt 0.565272 0.275759
vt 0.5016 0.275759
vt 0.565272 0.473024
vt 0.5016 0.473024
vt 0.5016 0.473024
vt 0.437928 0.275759
vt 0.5016 0.275759
vt 0.437928 0.275759
vt 0.5016 0.473024
vt 0.437928 0.473024
vt 0.437928 0.275759
vt 0.374256 0.473024
vt 0.374256 0.275759
vt 0.374256 0.473024
vt 0.437928 0.275759
vt 0.437928 0.473024
vt 0.374256 0.275759
vt 0.310584 0.473024
vt 0.310584 0.275759
vt 0.310584 0.473024
vt 0.374256 0.275759
vt 0.374256 0.473024
vt 0.883631 0.275759
vt 0.947303 0.473024
vt 0.883631 0.473024
vt 0.947303 0.473024
vt 0.883631 0.275759
vt 0.947303 0.275759
vt 0.819959 0.275759
vt 0.883631 0.473024
vt 0.819959 0.473024
vt 0.883631 0.473024
vt 0.819959 0.275759
vt 0.883631 0.275759
vt 0.819959 0.473024
vt 0.756287 0.275759
vt 0.819959 0.275759
vt 0.756287 0.275759
vt 0.819959 0.473024
vt 0.756287 0.473024
vt 0.756287 0.473024
vt 0.692616 0.275759
vt 0.756287 0.275759
vt 0.692616 0.275759
vt 0.756287 0.473024
vt 0.692616 0.473024
f 28/25/25 11/26/26 29/27/27
f 11/28/28 28/29/29 12/30/30
f 27/31/31 12/32/32 28/33/33
f 12/34/34 27/35/35 13/36/36
f 27/37/37 14/38/38 13/39/39
f 14/40/40 27/41/41 30/42/42
f 30/43/43 15/44/44 14/45/45
f 15/46/46 30/47/47 22/48/48
f 15/49/49 26/50/50 16/51/51
f 26/52/52 15/53/53 22/54/54
f 16/55/55 25/56/56 17/57/57
f 25/58/58 16/59/59 26/60/60
f 18/61/61 25/62/62 24/63/63
f 25/64/64 18/65/65 17/66/66
f 19/67/67 24/68/68 23/69/69
f 24/70/70 19/71/71 18/72/72
f 23/73/73 20/74/74 19/75/75
f 20/76/76 23/77/77 21/78/78
f 21/79/79 11/80/80 20/81/81
f 11/82/82 21/83/83 29/84/84
v 0.439214 0.999545 0.276285
v 0.571916 0.999545 0.276285
v 0.571916 0.999545 0.677735
v 0.439214 0.999545 0.677735
v 0.679274 0.999545 0.601065
v 0.331855 0.999545 0.601065
v 0.679274 0.999545 0.352955
v 0.720282 0.999545 0.47701
v 0.290848 0.999545 0.47701
v 0.331855 0.999545 0.352955
v 0.394482 0.925348 0.140817
v 0.616791 0.925348 0.140817
v 0.616791 0.925348 0.813343
v 0.394482 0.925348 0.813343
v 0.796642 0.925348 0.684902
v 0.214631 0.925348 0.684902
v 0.796642 0.925348 0.269259
v 0.865339 0.925348 0.477081
v 0.145933 0.925348 0.47708
v 0.214631 0.925348 0.269259
v 0.854617 0.777029 0.227977
v 0.156799 0.777029 0.227977
v 0.372437 0.777029 0.0739801
v 0.638979 0.777029 0.0739801
v 0.854617 0.777029 0.726325
v 0.638979 0.777029 0.880322
v 0.372437 0.777029 0.880322
v 0.156799 0.777029 0.726324
v 0.936983 0.777029 0.477151
v 0.074433 0.777029 0.477151
vn -0.188484 0.972159 -0.139216
vn 0.0957171 0.949275 -0.299525
vn -0.0957643 0.949248 -0.299594
vn 0.0957171 0.949275 -0.299525
vn -0.188484 0.972159 -0.139216
vn 0.188352 0.972196 -0.139132
vn -0.0956967 0.949329 0.29936
vn 0.18827 0.972223 0.139053
vn -0.188402 0.972186 0.139137
vn 0.18827 0.972223 0.139053
vn -0.0956967 0.949329 0.29936
vn 0.0956501 0.949355 0.299292
vn -0.188402 0.972186 0.139137
vn 0.232895 0.972502 -9.29423e-006
vn -0.233086 0.972456 -9.33329e-006
vn 0.232895 0.972502 -9.29423e-006
vn -0.188402 0.972186 0.139137
vn 0.18827 0.972223 0.139053
vn -0.233086 0.972456 -9.33329e-006
vn 0.188352 0.972196 -0.139132
vn -0.188484 0.972159 -0.139216
vn 0.188352 0.972196 -0.139132
vn -0.233086 0.972456 -9.33329e-006
vn 0.232895 0.972502 -9.29423e-006
vn 0.0957171 0.949275 -0.299525
vn 0.574073 0.700783 -0.423488
vn 0.218321 0.697737 -0.682274
vn 0.574073 0.700783 -0.423488
vn 0.0957171 0.949275 -0.299525
vn 0.188352 0.972196 -0.139132
vn -0.574353 0.700446 -0.423668
vn -0.0957643 0.949248 -0.299594
vn -0.218392 0.697609 -0.682383
vn -0.0957643 0.949248 -0.299594
vn -0.574353 0.700446 -0.423668
vn -0.188484 0.972159 -0.139216
vn -0.0957643 0.949248 -0.299594
vn 0.218321 0.697737 -0.682274
vn -0.218392 0.697609 -0.682383
vn 0.218321 0.697737 -0.682274
vn -0.0957643 0.949248 -0.299594
vn 0.0957171 0.949275 -0.299525
vn 0.0956501 0.949355 0.299292
vn 0.573896 0.70103 0.423321
vn 0.18827 0.972223 0.139053
vn 0.573896 0.70103 0.423321
vn 0.0956501 0.949355 0.299292
vn 0.218212 0.698138 0.6819
vn -0.218284 0.698007 0.68201
vn 0.0956501 0.949355 0.299292
vn -0.0956967 0.949329 0.29936
vn 0.0956501 0.949355 0.299292
vn -0.218284 0.698007 0.68201
vn 0.218212 0.698138 0.6819
vn -0.574177 0.700691 0.423501
vn -0.0956967 0.949329 0.29936
vn -0.188402 0.972186 0.139137
vn -0.0956967 0.949329 0.29936
vn -0.574177 0.700691 0.423501
vn -0.218284 0.698007 0.68201
vn 0.18827 0.972223 0.139053
vn 0.711451 0.702736 -1.82994e-005
vn 0.232895 0.972502 -9.29423e-006
vn 0.711451 0.702736 -1.82994e-005
vn 0.18827 0.972223 0.139053
vn 0.573896 0.70103 0.423321
vn -0.711863 0.702318 -1.86401e-005
vn -0.188402 0.972186 0.139137
vn -0.233086 0.972456 -9.33329e-006
vn -0.188402 0.972186 0.139137
vn -0.711863 0.702318 -1.86401e-005
vn -0.574177 0.700691 0.423501
vn 0.188352 0.972196 -0.139132
vn 0.711451 0.702736 -1.82994e-005
vn 0.574073 0.700783 -0.423488
vn 0.711451 0.702736 -1.82994e-005
vn 0.188352 0.972196 -0.139132
vn 0.232895 0.972502 -9.29423e-006
vn -0.711863 0.702318 -1.86361e-005
vn -0.188484 0.972159 -0.139216
vn -0.574353 0.700446 -0.423668
vn -0.188484 0.972159 -0.139216
vn -0.711863 0.702318 -1.86361e-005
vn -0.233086 0.972456 -9.33329e-006
vn 0.574073 0.700783 -0.423488
vn 0.275488 0.428899 -0.860321
vn 0.218321 0.697737 -0.682274
vn 0.275488 0.428899 -0.860321
vn 0.574073 0.700783 -0.423488
vn 0.725724 0.43257 -0.534984
vn -0.574353 0.700446 -0.423668
vn -0.275547 0.428688 -0.860407
vn -0.725955 0.432003 -0.535129
vn -0.275547 0.428688 -0.860407
vn -0.574353 0.700446 -0.423668
vn -0.218392 0.697609 -0.682383
vn -0.218392 0.697609 -0.682383
vn 0.275488 0.428899 -0.860321
vn -0.275547 0.428688 -0.860407
vn 0.275488 0.428899 -0.860321
vn -0.218392 0.697609 -0.682383
vn 0.218321 0.697737 -0.682274
vn 0.275398 0.429574 0.860013
vn 0.573896 0.70103 0.423321
vn 0.218212 0.698138 0.6819
vn 0.573896 0.70103 0.423321
vn 0.275398 0.429574 0.860013
vn 0.725579 0.432987 0.534844
vn 0.275398 0.429574 0.860013
vn -0.218284 0.698007 0.68201
vn -0.27546 0.429354 0.860103
vn -0.218284 0.698007 0.68201
vn 0.275398 0.429574 0.860013
vn 0.218212 0.698138 0.6819
vn -0.27546 0.429354 0.860103
vn -0.574177 0.700691 0.423501
vn -0.725811 0.432416 0.534991
vn -0.574177 0.700691 0.423501
vn -0.27546 0.429354 0.860103
vn -0.218284 0.698007 0.68201
vn 0.711451 0.702736 -1.82994e-005
vn 0.725579 0.432987 0.534844
vn 0.900452 0.434956 -1.64956e-005
vn 0.725579 0.432987 0.534844
vn 0.711451 0.702736 -1.82994e-005
vn 0.573896 0.70103 0.423321
vn -0.574177 0.700691 0.423501
vn -0.900793 0.434249 -1.70714e-005
vn -0.725811 0.432416 0.534991
vn -0.900793 0.434249 -1.70714e-005
vn -0.574177 0.700691 0.423501
vn -0.711863 0.702318 -1.86401e-005
vn 0.725724 0.43257 -0.534984
vn 0.711451 0.702736 -1.82994e-005
vn 0.900452 0.434956 -1.64956e-005
vn 0.711451 0.702736 -1.82994e-005
vn 0.725724 0.43257 -0.534984
vn 0.574073 0.700783 -0.423488
vn -0.711863 0.702318 -1.86401e-005
vn -0.725955 0.432003 -0.535129
vn -0.900793 0.434249 -1.70714e-005
vn -0.725955 0.432003 -0.535129
vn -0.711863 0.702318 -1.86401e-005
vn -0.574353 0.700446 -0.423668
vt 0.819603 0.709749
vt 0.707625 0.671679
vt 0.769525 0.671679
vt 0.707625 0.671679
vt 0.819603 0.709749
vt 0.657547 0.709749
vt 0.769525 0.871019
vt 0.657547 0.832949
vt 0.819603 0.832949
vt 0.657547 0.832949
vt 0.769525 0.871019
vt 0.707625 0.871019
vt 0.819603 0.832949
vt 0.638418 0.771349
vt 0.838731 0.771349
vt 0.638418 0.771349
vt 0.819603 0.832949
vt 0.657547 0.832949
vt 0.838731 0.771349
vt 0.657547 0.709749
vt 0.819603 0.709749
vt 0.657547 0.709749
vt 0.838731 0.771349
vt 0.638418 0.771349
vt 0.707625 0.671679
vt 0.602799 0.66819
vt 0.686693 0.604412
vt 0.602799 0.66819
vt 0.707625 0.671679
vt 0.657547 0.709749
vt 0.874284 0.66819
vt 0.769525 0.671679
vt 0.79039 0.604412
vt 0.769525 0.671679
vt 0.874284 0.66819
vt 0.819603 0.709749
vt 0.769525 0.671679
vt 0.686693 0.604412
vt 0.79039 0.604412
vt 0.686693 0.604412
vt 0.769525 0.671679
vt 0.707625 0.671679
vt 0.707625 0.871019
vt 0.602799 0.874578
vt 0.657547 0.832949
vt 0.602799 0.874578
vt 0.707625 0.871019
vt 0.686693 0.938356
vt 0.79039 0.938356
vt 0.707625 0.871019
vt 0.769525 0.871019
vt 0.707625 0.871019
vt 0.79039 0.938356
vt 0.686693 0.938356
vt 0.874284 0.874578
vt 0.769525 0.871019
vt 0.819603 0.832949
vt 0.769525 0.871019
vt 0.874284 0.874578
vt 0.79039 0.938356
vt 0.657547 0.832949
vt 0.570755 0.771384
vt 0.638418 0.771349
vt 0.570755 0.771384
vt 0.657547 0.832949
vt 0.602799 0.874578
vt 0.906328 0.771384
vt 0.819603 0.832949
vt 0.838731 0.771349
vt 0.819603 0.832949
vt 0.906328 0.771384
vt 0.874284 0.874578
vt 0.657547 0.709749
vt 0.570755 0.771384
vt 0.602799 0.66819
vt 0.570755 0.771384
vt 0.657547 0.709749
vt 0.638418 0.771349
vt 0.906328 0.771384
vt 0.819603 0.709749
vt 0.874284 0.66819
vt 0.819603 0.709749
vt 0.906328 0.771384
vt 0.838731 0.771349
vt 0.602799 0.66819
vt 0.676343 0.571223
vt 0.686693 0.604412
vt 0.676343 0.571223
vt 0.602799 0.66819
vt 0.575757 0.647691
vt 0.874284 0.66819
vt 0.800674 0.571223
vt 0.90126 0.647691
vt 0.800674 0.571223
vt 0.874284 0.66819
vt 0.79039 0.604412
vt 0.79039 0.604412
vt 0.676343 0.571223
vt 0.800674 0.571223
vt 0.676343 0.571223
vt 0.79039 0.604412
vt 0.686693 0.604412
vt 0.676343 0.971614
vt 0.602799 0.874578
vt 0.686693 0.938356
vt 0.602799 0.874578
vt 0.676343 0.971614
vt 0.575757 0.895146
vt 0.676343 0.971614
vt 0.79039 0.938356
vt 0.800674 0.971614
vt 0.79039 0.938356
vt 0.676343 0.971614
vt 0.686693 0.938356
vt 0.800674 0.971614
vt 0.874284 0.874578
vt 0.90126 0.895146
vt 0.874284 0.874578
vt 0.800674 0.971614
vt 0.79039 0.938356
vt 0.570755 0.771384
vt 0.575757 0.895146
vt 0.537336 0.771419
vt 0.575757 0.895146
vt 0.570755 0.771384
vt 0.602799 0.874578
vt 0.874284 0.874578
vt 0.93968 0.771419
vt 0.90126 0.895146
vt 0.93968 0.771419
vt 0.874284 0.874578
vt 0.906328 0.771384
vt 0.575757 0.647691
vt 0.570755 0.771384
vt 0.537336 0.771419
vt 0.570755 0.771384
vt 0.575757 0.647691
vt 0.602799 0.66819
vt 0.906328 0.771384
vt 0.90126 0.647691
vt 0.93968 0.771419
vt 0.90126 0.647691
vt 0.906328 0.771384
vt 0.874284 0.66819
f 40/85/85 32/86/86 31/87/87
f 32/88/88 40/89/89 37/90/90
f 34/91/91 35/92/92 36/93/93
f 35/94/94 34/95/95 33/96/96
f 36/97/97 38/98/98 39/99/99
f 38/100/100 36/101/101 35/102/102
f 39/103/103 37/104/104 40/105/105
f 37/106/106 39/107/107 38/108/108
f 32/109/109 47/110/110 42/111/111
f 47/112/112 32/113/113 37/114/114
f 50/115/115 31/116/116 41/117/117
f 31/118/118 50/119/119 40/120/120
f 31/121/121 42/122/122 41/123/123
f 42/124/124 31/125/125 32/126/126
f 33/127/127 45/128/128 35/129/129
f 45/130/130 33/131/131 43/132/132
f 44/133/133 33/134/134 34/135/135
f 33/136/136 44/137/137 43/138/138
f 46/139/139 34/140/140 36/141/141
f 34/142/142 46/143/143 44/144/144
f 35/145/145 48/146/146 38/147/147
f 48/148/148 35/149/149 45/150/150
f 49/151/151 36/152/152 39/153/153
f 36/154/154 49/155/155 46/156/156
f 37/157/157 48/158/158 47/159/159
f 48/160/160 37/161/161 38/162/162
f 49/163/163 40/164/164 50/165/165
f 40/166/166 49/167/167 39/168/168
f 47/169/169 54/170/170 42/171/171
f 54/172/172 47/173/173 51/174/174
f 50/175/175 53/176/176 52/177/177
f 53/178/178 50/179/179 41/180/180
f 41/181/181 54/182/182 53/183/183
f 54/184/184 41/185/185 42/186/186
f 56/187/187 45/188/188 43/189/189
f 45/190/190 56/191/191 55/192/192
f 56/193/193 44/194/194 57/195/195
f 44/196/196 56/197/197 43/198/198
f 57/199/199 46/200/200 58/201/201
f 46/202/202 57/203/203 44/204/204
f 48/205/205 55/206/206 59/207/207
f 55/208/208 48/209/209 45/210/210
f 46/211/211 60/212/212 58/213/213
f 60/214/214 46/215/215 49/216/216
f 51/217/217 48/218/218 59/219/219
f 48/220/220 51/221/221 47/222/222
f 49/223/223 52/224/224 60/225/225
f 52/226/226 49/227/227 50/228/228
